<?xml version="1.0" standalone="no"?>
<!DOCTYPE svg PUBLIC "-//W3C//DTD SVG 20010904//EN"
 "http://www.w3.org/TR/2001/REC-SVG-20010904/DTD/svg10.dtd">
<svg version="1.0" xmlns="http://www.w3.org/2000/svg"
 width="1024.000000pt" height="1024.000000pt" viewBox="0 0 1024.000000 1024.000000"
 preserveAspectRatio="xMidYMid meet">

<g transform="translate(0.000000,1024.000000) scale(0.100000,-0.100000)"
fill="#000000" stroke="none">
<path d="M4786 7324 c-102 -16 -243 -53 -342 -90 -84 -31 -272 -123 -281 -137
-4 -7 1 -8 13 -3 43 18 215 56 299 67 170 22 384 -7 600 -81 144 -50 260 -104
438 -203 475 -266 666 -337 902 -337 88 1 217 19 231 33 8 7 -157 187 -238
260 -301 271 -655 435 -1057 491 -138 20 -440 20 -565 0z"/>
<path d="M4741 6024 c-138 -29 -231 -99 -284 -212 -28 -60 -31 -75 -30 -162 0
-115 24 -185 84 -254 55 -62 146 -104 349 -159 199 -54 207 -58 248 -92 27
-23 32 -34 32 -70 0 -54 -35 -100 -88 -115 -21 -6 -159 -10 -325 -10 l-288 0
3 -127 3 -128 340 0 c323 1 343 2 397 22 119 45 189 115 229 231 29 81 23 245
-10 314 -50 104 -129 155 -331 214 -69 20 -163 47 -209 61 -129 38 -168 92
-126 173 31 60 52 64 353 68 l272 4 0 129 0 129 -277 -1 c-198 0 -297 -5 -342
-15z"/>
<path d="M5520 5370 l0 -670 145 0 145 0 0 405 c0 223 3 405 8 405 4 0 63
-109 131 -243 173 -338 149 -307 230 -307 l67 0 41 83 c51 99 141 269 209 392
l49 90 3 -412 2 -413 145 0 145 0 0 670 0 671 -151 -3 -151 -3 -50 -90 c-27
-49 -106 -193 -175 -320 -69 -126 -128 -233 -132 -237 -7 -8 -105 165 -279
492 -30 58 -64 117 -74 133 l-19 27 -145 0 -144 0 0 -670z"/>
<path d="M3340 5365 l0 -665 150 0 149 0 -1 138 c-1 75 -1 167 0 204 l2 66
203 4 c181 4 208 6 260 27 112 44 188 122 227 233 27 78 38 238 21 320 -26
124 -103 229 -206 282 -101 51 -143 56 -487 56 l-318 0 0 -665z m595 394 c154
-43 184 -291 44 -369 -39 -22 -58 -24 -190 -28 l-146 -4 -6 77 c-9 99 -9 263
-1 304 l7 31 126 0 c69 0 144 -5 166 -11z"/>
<path d="M3925 4189 c-100 -9 -229 -42 -308 -77 l-61 -28 136 4 c151 5 233 -7
402 -59 129 -40 250 -101 521 -264 302 -182 427 -244 600 -298 162 -51 239
-62 415 -61 144 1 178 4 265 27 171 45 365 157 521 302 l49 45 -107 -55 c-185
-96 -334 -130 -563 -129 -128 1 -167 5 -265 29 -194 47 -399 135 -650 280
-312 181 -524 261 -750 285 -52 5 -102 9 -110 8 -8 0 -51 -4 -95 -9z"/>
<path d="M3530 4001 c0 -39 270 -317 400 -412 204 -150 455 -268 698 -329 261
-65 585 -75 827 -24 85 18 284 80 305 95 12 8 10 9 -10 4 -51 -13 -315 -17
-390 -6 -257 39 -451 121 -858 363 -315 187 -498 269 -672 302 -90 17 -300 22
-300 7z"/>
</g>
</svg>
